<svg width="16" height="15" viewBox="0 0 16 15" fill="none" xmlns="http://www.w3.org/2000/svg">
<g clip-path="url(#clip0_7601_49)">
<path d="M5.21885 14.0506C10.8778 14.0506 13.9739 9.13769 13.9739 4.87857C13.9739 4.74046 13.971 4.59927 13.9651 4.46115C14.5674 4.00485 15.0872 3.43966 15.5 2.79213C14.9391 3.05357 14.3435 3.22432 13.7337 3.29855C14.3758 2.89533 14.8566 2.26189 15.0869 1.51565C14.4828 1.89069 13.8222 2.15525 13.1334 2.29799C12.6693 1.78134 12.0556 1.43927 11.3873 1.32464C10.719 1.21002 10.0332 1.32923 9.43609 1.66384C8.83893 1.99845 8.36363 2.52984 8.08365 3.17583C7.80368 3.82182 7.73464 4.54644 7.88721 5.23766C6.66406 5.17336 5.46746 4.84049 4.37499 4.26063C3.28252 3.68077 2.31856 2.86687 1.54561 1.87168C1.15275 2.58126 1.03254 3.42093 1.20939 4.22003C1.38625 5.01913 1.84691 5.7177 2.49775 6.17377C2.00914 6.15752 1.53123 6.0197 1.10352 5.7717V5.81161C1.10308 6.55625 1.34881 7.2781 1.79894 7.8544C2.24908 8.43071 2.87583 8.82593 3.57266 8.97287C3.12003 9.10261 2.64499 9.12152 2.18428 9.02812C2.38091 9.66853 2.76348 10.2287 3.27861 10.6303C3.79373 11.0319 4.4157 11.2551 5.05771 11.2686C3.96777 12.1656 2.62136 12.6521 1.23535 12.6498C0.989554 12.6494 0.743999 12.6335 0.5 12.6025C1.90804 13.5488 3.54596 14.0515 5.21885 14.0506Z" fill="white"/>
</g>
<defs>
<clipPath id="clip0_7601_49">
<rect width="16" height="14.6667" fill="white" transform="translate(0 0.333008)"/>
</clipPath>
</defs>
</svg>
