<svg width="139" height="21" viewBox="0 0 139 21" fill="none" xmlns="http://www.w3.org/2000/svg">
<path d="M15.7217 20.6609H11.637L5.93669 12.8236H3.33611V20.6609H0.0131343L0 0.414474H6.58027C10.5206 0.414474 13.7516 3.31579 13.7516 6.92045C13.7516 9.53289 11.9916 11.8062 9.56175 12.5598L15.7217 20.6609ZM3.32297 10.186H6.65908C8.65549 10.1986 10.3235 8.65371 10.3235 6.8451C10.3235 4.96112 8.62922 3.56699 6.65908 3.56699H3.32297V10.186Z" fill="white"/>
<path d="M30.5766 3.54187H21.2907V8.72907H29.3026V11.8941H21.2907V17.4958H30.5766V20.6609H17.9677V0.414474H30.5766V3.54187Z" fill="white"/>
<path d="M48.8201 20.6609L46.0882 14.8733H38.6489L35.9091 20.6609H32.3103L42.2661 0H42.4631L52.4189 20.6609H48.8201ZM38.6489 14.8733H46.0882V14.8583L40.7409 3.16507L39.5923 5.54892L41.3388 8.76423L38.6489 14.8733Z" fill="white"/>
<path d="M60.7985 0.414474C67.5233 0.401914 71.7131 4.29545 71.7131 10.5628C71.7131 16.7799 67.5233 20.6609 60.7985 20.6609H54.7699V0.414474H60.7985ZM60.8248 17.4958C65.4481 17.4958 68.3508 14.8206 68.3508 10.5502C68.3508 6.25478 65.4349 3.56699 60.7854 3.56699H58.0798V17.4958H60.8248Z" fill="white"/>
<path d="M80.8677 21C77.3871 21 74.7471 19.4426 73.5388 17.1065L76.1656 15.3104C77.1113 16.8929 78.8713 17.7972 80.9071 17.7972C83.2844 17.7972 85.0838 16.7045 85.0838 15.1597C85.0838 13.2883 82.2993 12.1579 79.8301 11.1405C77.3477 10.0855 74.5895 8.85466 74.5895 5.67703C74.5895 2.36124 77.5973 0.0502392 81.4062 0.0502392C84.4271 0.0502392 86.6862 1.44438 87.5531 3.66746L85.0838 5.30024C84.4271 3.93122 82.9692 3.16507 81.4325 3.16507C79.4886 3.16507 77.9388 4.32057 77.9388 5.75239C77.9388 7.33493 79.8958 7.90012 82.4701 8.95514C85.8193 10.3618 88.4199 11.9067 88.4199 15.0969C88.4199 18.689 85.1626 21 80.8677 21Z" fill="white"/>
<path d="M104.549 0.414474V3.56699H98.8748V20.6609H95.5387V3.56699H89.8647V0.414474H104.549Z" fill="white"/>
<path d="M119.811 3.54187H110.525V8.72907H118.537V11.8941H110.525V17.4958H119.811V20.6609H107.202V0.414474H119.811V3.54187Z" fill="white"/>
<path d="M139 20.6609H134.915L129.215 12.8236H126.614V20.6609H123.291L123.278 0.414474H129.859C133.799 0.414474 137.03 3.31579 137.03 6.92045C137.03 9.53289 135.27 11.8062 132.84 12.5598L139 20.6609ZM126.601 10.186H129.937C131.934 10.1986 133.602 8.65371 133.602 6.8451C133.602 4.96112 131.908 3.56699 129.937 3.56699H126.601V10.186Z" fill="white"/>
</svg>
