<svg width="18" height="18" viewBox="0 0 18 18" fill="none" xmlns="http://www.w3.org/2000/svg">
<path d="M13.0054 3.35324C12.8125 3.35324 12.624 3.41042 12.4637 3.51756C12.3034 3.62469 12.1784 3.77697 12.1046 3.95512C12.0308 4.13329 12.0115 4.32933 12.0491 4.51845C12.0867 4.70758 12.1796 4.88132 12.3159 5.01768C12.4523 5.15402 12.626 5.24689 12.8151 5.28451C13.0043 5.32212 13.2004 5.30282 13.3785 5.22902C13.5567 5.15523 13.7089 5.03026 13.816 4.86992C13.9232 4.70959 13.9804 4.52108 13.9804 4.32824C13.9804 4.06965 13.8777 3.82166 13.6948 3.63881C13.5119 3.45596 13.264 3.35324 13.0054 3.35324ZM16.7429 5.31949C16.7271 4.64536 16.6009 3.97838 16.3691 3.34512C16.1625 2.80329 15.841 2.31266 15.4266 1.90699C15.0243 1.49053 14.5326 1.17101 13.9885 0.972617C13.3569 0.733873 12.6892 0.604725 12.0141 0.590742C11.1529 0.541992 10.8766 0.541992 8.66663 0.541992C6.45663 0.541992 6.18038 0.541992 5.31913 0.590742C4.64406 0.604725 3.97635 0.733873 3.34475 0.972617C2.80174 1.17302 2.31038 1.49226 1.90663 1.90699C1.49016 2.30932 1.17064 2.8011 0.972251 3.34512C0.733507 3.97671 0.604359 4.64442 0.590376 5.31949C0.541626 6.18074 0.541626 6.45699 0.541626 8.66699C0.541626 10.877 0.541626 11.1532 0.590376 12.0145C0.604359 12.6895 0.733507 13.3573 0.972251 13.9889C1.17064 14.5329 1.49016 15.0246 1.90663 15.427C2.31038 15.8417 2.80174 16.161 3.34475 16.3614C3.97635 16.6001 4.64406 16.7293 5.31913 16.7432C6.18038 16.792 6.45663 16.792 8.66663 16.792C10.8766 16.792 11.1529 16.792 12.0141 16.7432C12.6892 16.7293 13.3569 16.6001 13.9885 16.3614C14.5326 16.163 15.0243 15.8434 15.4266 15.427C15.8428 15.0228 16.1647 14.5317 16.3691 13.9889C16.6009 13.3556 16.7271 12.6887 16.7429 12.0145C16.7429 11.1532 16.7916 10.877 16.7916 8.66699C16.7916 6.45699 16.7916 6.18074 16.7429 5.31949ZM15.2804 11.917C15.2744 12.4328 15.181 12.9438 15.0041 13.4282C14.8743 13.7818 14.666 14.1013 14.3948 14.3626C14.1312 14.6312 13.8124 14.8391 13.4604 14.972C12.9759 15.1489 12.4649 15.2423 11.9491 15.2482C11.1366 15.2889 10.836 15.297 8.69913 15.297C6.56225 15.297 6.26163 15.297 5.44913 15.2482C4.9136 15.2583 4.38036 15.1758 3.87288 15.0045C3.53633 14.8649 3.23211 14.6574 2.97913 14.3951C2.70945 14.1341 2.50368 13.8143 2.37788 13.4607C2.17951 12.9693 2.06948 12.4467 2.05288 11.917C2.05288 11.1045 2.00413 10.8039 2.00413 8.66699C2.00413 6.53012 2.00413 6.22949 2.05288 5.41699C2.05652 4.88972 2.15277 4.3672 2.33725 3.87324C2.48029 3.53029 2.69984 3.22459 2.97913 2.97949C3.22597 2.70013 3.53105 2.47826 3.87288 2.32949C4.36813 2.15077 4.89013 2.05737 5.41663 2.05324C6.22913 2.05324 6.52975 2.00449 8.66663 2.00449C10.8035 2.00449 11.1041 2.00449 11.9166 2.05324C12.4324 2.05916 12.9434 2.15256 13.4279 2.32949C13.7971 2.46652 14.1285 2.68931 14.3948 2.97949C14.661 3.22907 14.869 3.53421 15.0041 3.87324C15.1847 4.368 15.2782 4.89031 15.2804 5.41699C15.321 6.22949 15.3291 6.53012 15.3291 8.66699C15.3291 10.8039 15.321 11.1045 15.2804 11.917ZM8.66663 4.49887C7.8426 4.50047 7.03753 4.74629 6.35316 5.20527C5.66878 5.66424 5.1358 6.31578 4.82158 7.07754C4.50735 7.8393 4.42596 8.67712 4.58771 9.48513C4.74946 10.2931 5.14707 11.0351 5.73032 11.6171C6.31356 12.1993 7.05626 12.5955 7.86457 12.7556C8.67289 12.9158 9.51054 12.8327 10.2717 12.5171C11.0328 12.2014 11.6834 11.6671 12.141 10.9819C12.5986 10.2966 12.8429 9.49102 12.8429 8.66699C12.844 8.11864 12.7366 7.57549 12.527 7.06877C12.3175 6.56205 12.0097 6.10178 11.6216 5.71441C11.2335 5.32704 10.7726 5.02023 10.2655 4.81163C9.75833 4.60302 9.21498 4.49672 8.66663 4.49887ZM8.66663 11.3726C8.1315 11.3726 7.6084 11.2139 7.16346 10.9166C6.71852 10.6193 6.37174 10.1968 6.16695 9.70239C5.96217 9.208 5.90859 8.66399 6.01299 8.13915C6.11739 7.61431 6.37507 7.13221 6.75346 6.75383C7.13185 6.37544 7.61394 6.11776 8.13878 6.01336C8.66363 5.90896 9.20763 5.96254 9.70202 6.16732C10.1964 6.3721 10.619 6.71889 10.9163 7.16382C11.2135 7.60877 11.3723 8.13187 11.3723 8.66699C11.3723 9.0223 11.3023 9.37413 11.1663 9.70239C11.0304 10.0307 10.831 10.3289 10.5798 10.5802C10.3286 10.8314 10.0303 11.0307 9.70202 11.1667C9.37376 11.3026 9.02194 11.3726 8.66663 11.3726Z" fill="white"/>
</svg>
