<svg width="18" height="13" viewBox="0 0 18 13" fill="none" xmlns="http://www.w3.org/2000/svg">
<g clip-path="url(#clip0_7601_41)">
<path d="M16.6888 3.25627C16.6888 3.25627 16.5288 2.07993 16.0365 1.56341C15.4131 0.883599 14.716 0.880266 14.3963 0.840277C12.107 0.666992 8.66983 0.666992 8.66983 0.666992H8.66343C8.66343 0.666992 5.22629 0.666992 2.937 0.840277C2.61727 0.880266 1.92025 0.883599 1.29677 1.56341C0.804377 2.07993 0.647707 3.25627 0.647707 3.25627C0.647707 3.25627 0.481445 4.63922 0.481445 6.01884V7.31181C0.481445 8.69143 0.64451 10.0744 0.64451 10.0744C0.64451 10.0744 0.804377 11.2507 1.29357 11.7672C1.91705 12.4471 2.73557 12.4237 3.10007 12.497C4.41097 12.627 8.66663 12.667 8.66663 12.667C8.66663 12.667 12.107 12.6603 14.3963 12.4904C14.716 12.4504 15.4131 12.4471 16.0365 11.7672C16.5288 11.2507 16.6888 10.0744 16.6888 10.0744C16.6888 10.0744 16.8518 8.69476 16.8518 7.31181V6.01884C16.8518 4.63922 16.6888 3.25627 16.6888 3.25627ZM6.97524 8.88137V4.08604L11.3971 6.49204L6.97524 8.88137Z" fill="white"/>
</g>
<defs>
<clipPath id="clip0_7601_41">
<rect width="17.3333" height="12" fill="white" transform="translate(0 0.666992)"/>
</clipPath>
</defs>
</svg>
